<svg aria-hidden="true" style="position: absolute; width: 0; height: 0; overflow: hidden;" version="1.1" xmlns="http://www.w3.org/2000/svg" xmlns:xlink="http://www.w3.org/1999/xlink">
<defs>
<symbol id="icon-chevrons-right" viewBox="0 0 32 32">
<path d="M13.728 10.28l5.767 5.72-5.767 5.72 1.877 1.893 7.676-7.613-7.676-7.613-1.877 1.893z"></path>
<path d="M8.939 8.387l-1.877 1.893 5.767 5.72-5.767 5.72 1.877 1.893 7.676-7.613-7.676-7.613z"></path>
</symbol>
<symbol id="icon-Close" viewBox="0 0 32 32">
<path d="M21.589 8.459l-5.657 5.656-5.656-5.656-1.885 1.885 5.656 5.656-5.656 5.656 1.885 1.885 5.656-5.656 5.657 5.656 1.885-1.885-5.656-5.656 5.656-5.656-1.885-1.885z"></path>
</symbol>
<symbol id="icon-Company-Logo" viewBox="0 0 32 32">
<path d="M13.653 12.912c-0.116-1.186-1.173-2.052-2.359-1.933-1.181 0.119-2.044 1.171-1.928 2.352s1.165 2.047 2.347 1.935c1.186-0.113 2.056-1.168 1.94-2.354zM12.048 11.476c0.026-0 0.046 0.005 0.070 0.012l0.005 0.001c0.010 0.048-0 0.070-0.025 0.111-0.044 0.072-0.093 0.14-0.142 0.208-0.086 0.121-0.173 0.242-0.232 0.38-0.128 0.299-0.098 0.647-0.068 0.999 0.026 0.308 0.053 0.619-0.026 0.902-0.095 0.34-0.333 0.563-0.632 0.729-0.017 0.003-0.035 0.001-0.052 0-0.004-0-0.007-0.001-0.011-0.001-0.002-0-0.005-0-0.007-0l-0.003-0.005c-0.017-0.032-0.018-0.034-0.006-0.071 0.016-0.048 0.048-0.097 0.078-0.143 0.011-0.018 0.023-0.035 0.033-0.051 0.104-0.173 0.205-0.36 0.237-0.561 0.040-0.252 0.019-0.511-0.003-0.77-0.027-0.329-0.054-0.658 0.044-0.972 0.12-0.386 0.401-0.587 0.739-0.767z"></path>
<path d="M18.724 19.169c-0.134-1.151-1.177-1.976-2.328-1.842s-1.977 1.177-1.842 2.329 1.178 1.976 2.329 1.842c1.151-0.135 1.975-1.177 1.841-2.329zM16.399 17.81c0.279-0.021 0.539 0.047 0.764 0.214 0.364 0.27 0.549 0.717 0.611 1.154 0.065 0.462 0.059 1.103-0.242 1.489-0.164 0.211-0.372 0.296-0.628 0.328-0.274 0.026-0.548-0.047-0.771-0.206-0.354-0.255-0.535-0.674-0.601-1.094-0.075-0.478-0.072-1.148 0.238-1.552 0.165-0.215 0.371-0.3 0.631-0.334z"></path>
<path d="M6.764 9.248c0.374-0.049 0.796-0.011 1.16 0.081 0.221 0.056 0.442 0.132 0.668 0.163 0.13 0.018 0.266 0.017 0.397 0.019 0.021 0.364 0.091 1.235 0.049 1.556-0.067 0.013-0.118 0.009-0.186 0-0.069-0.080-0.101-0.258-0.143-0.361-0.152-0.379-0.452-0.67-0.829-0.825-0.472-0.194-1.036-0.169-1.501 0.032-0.489 0.211-0.887 0.634-1.081 1.128-0.301 0.767-0.298 1.75 0.039 2.504 0.234 0.523 0.649 0.983 1.193 1.187 0.519 0.195 1.083 0.137 1.581-0.091 0.222-0.113 0.427-0.282 0.559-0.495 0.075-0.121 0.13-0.35 0.248-0.428l0.033 0.013c0.127 0.161 0.175 0.664 0.217 0.881-0.479 0.422-1.058 0.703-1.693 0.786-0.832 0.109-1.7-0.059-2.372-0.577-0.612-0.472-0.984-1.214-1.075-1.974-0.107-0.884 0.088-1.775 0.647-2.478 0.515-0.648 1.273-1.027 2.089-1.12z"></path>
<path d="M22.387 11.346c-0.223-0.055-0.492-0.085-0.721-0.057-0.533 0.052-0.988 0.258-1.335 0.676-0.384 0.468-0.566 1.069-0.507 1.671 0.053 0.513 0.289 1.024 0.699 1.349 0.43 0.341 1.038 0.438 1.572 0.374 0.474-0.056 0.894-0.261 1.188-0.643 0.134-0.175 0.232-0.373 0.309-0.578-0.009-0.009-0.019-0.018-0.028-0.027-0.045-0.045-0.092-0.091-0.153-0.109-0.005 0.002-0.010 0.004-0.014 0.006-0.019 0.008-0.026 0.011-0.041 0.034-0.253 0.373-0.544 0.62-0.998 0.705-0.354 0.066-0.705 0.005-1.002-0.203-0.236-0.166-0.422-0.41-0.531-0.676 0.543-0.322 1.133-0.647 1.757-0.775 0.124-0.025 0.25-0.040 0.375-0.054 0.132-0.015 0.264-0.030 0.392-0.057 0.086-0.019 0.147-0.036 0.177-0.127 0.073-0.228-0.042-0.601-0.157-0.798-0.21-0.36-0.58-0.61-0.98-0.709zM21.834 11.71c0.101 0.001 0.21 0.008 0.308 0.035 0.165 0.046 0.315 0.143 0.396 0.298 0.056 0.107 0.099 0.279 0.056 0.396-0.037 0.098-0.116 0.166-0.204 0.218-0.11 0.065-0.241 0.106-0.368 0.147-0.043 0.014-0.086 0.027-0.127 0.041-0.221 0.076-0.44 0.16-0.651 0.262-0.048 0.021-0.109 0.060-0.174 0.101-0.122 0.077-0.258 0.163-0.35 0.162-0.049-0.041-0.062-0.075-0.067-0.137-0.034-0.41 0.131-0.877 0.397-1.188 0.194-0.227 0.5-0.311 0.786-0.334z"></path>
<path d="M26.377 11.307c-0.158-0.022-0.317-0.028-0.476-0.018-0.541 0.044-0.998 0.241-1.352 0.662-0.389 0.466-0.576 1.068-0.519 1.673 0.048 0.501 0.282 1.013 0.676 1.334 0.425 0.346 1.058 0.465 1.592 0.404 0.476-0.054 0.903-0.277 1.2-0.655 0.137-0.175 0.244-0.372 0.317-0.582-0.009-0.008-0.019-0.017-0.029-0.026-0.049-0.045-0.108-0.098-0.17-0.103-0.255 0.383-0.559 0.653-1.021 0.746-0.348 0.070-0.686 0.019-0.984-0.179-0.256-0.17-0.443-0.418-0.576-0.693 0.587-0.399 1.308-0.705 2.006-0.834 0.087-0.016 0.174-0.023 0.262-0.030 0.073-0.006 0.145-0.011 0.217-0.022 0.094-0.014 0.189-0.036 0.21-0.143 0.059-0.302-0.060-0.665-0.238-0.908-0.269-0.366-0.672-0.567-1.115-0.628zM25.862 11.724c0.182-0.014 0.359-0.023 0.534 0.041 0.168 0.061 0.304 0.183 0.377 0.347 0.048 0.108 0.069 0.229 0.024 0.342-0.026 0.064-0.074 0.121-0.129 0.162-0.132 0.097-0.459 0.21-0.742 0.31-0.14 0.049-0.27 0.094-0.36 0.132-0.146 0.065-0.287 0.144-0.427 0.223-0.078 0.044-0.156 0.087-0.234 0.129-0.066-0.402-0.025-0.812 0.194-1.164 0.181-0.291 0.436-0.445 0.764-0.52z"></path>
<path d="M12.388 16.13c0.43-0.002 1.639-0.056 1.965 0.030 0.027 0.037 0.025 0.038 0.021 0.085-0.075 0.127-0.236 0.178-0.348 0.269-0.064 0.052-0.123 0.127-0.142 0.209-0.072 0.304-0.044 0.655-0.044 0.967l-0.009 1.317c-0.002 0.314 0.008 0.636-0.029 0.948-0.053 0.447-0.25 0.862-0.611 1.141-0.45 0.347-1.079 0.424-1.629 0.35-0.482-0.065-0.952-0.274-1.252-0.669-0.272-0.359-0.341-0.778-0.283-1.216 0.015-0.077 0.035-0.152 0.062-0.226 0.103-0.273 0.303-0.498 0.574-0.614 0.286-0.122 0.646-0.131 0.933-0.008 0.14 0.060 0.228 0.163 0.279 0.307 0.031 0.087 0.042 0.162 0.002 0.247-0.116 0.109-0.376-0.037-0.538 0.008-0.149 0.042-0.264 0.146-0.335 0.282-0.124 0.235-0.127 0.543-0.038 0.791 0.079 0.221 0.258 0.399 0.469 0.497 0.251 0.116 0.603 0.145 0.865 0.047 0.203-0.075 0.352-0.237 0.434-0.435 0.070-0.171 0.104-0.367 0.12-0.55 0.037-0.413 0.084-2.904-0.007-3.174-0.096-0.284-0.423-0.293-0.498-0.466 0-0.042 0.001-0.071 0.021-0.107 0.005-0.010 0.011-0.019 0.016-0.029z"></path>
<path d="M21.279 20.747c0.183-0.454 0.342-0.922 0.511-1.382 0.132-0.358 0.295-0.729 0.376-1.102 0.017-0.079 0.025-0.158 0.003-0.237-0.068-0.242-0.38-0.223-0.451-0.41 0.010-0.041 0.004-0.059 0.043-0.084 0.072-0.046 1.347-0.051 1.504-0.031 0.052 0.007 0.089 0.018 0.123 0.060 0.004 0.090-0.018 0.131-0.099 0.177-0.13 0.073-0.295 0.111-0.392 0.231-0.153 0.19-0.73 1.813-0.872 2.182l-0.475 1.233c-0.12 0.31-0.232 0.646-0.41 0.928-0.108 0.17-0.253 0.336-0.429 0.437-0.257 0.148-0.583 0.175-0.867 0.095-0.221-0.062-0.423-0.199-0.528-0.407-0.084-0.165-0.104-0.383-0.043-0.559 0.046-0.131 0.152-0.239 0.278-0.295 0.082-0.036 0.215-0.068 0.299-0.022 0.201 0.109 0.070 0.47 0.147 0.663 0.026 0.065 0.064 0.11 0.13 0.137 0.107 0.043 0.294-0.016 0.391-0.063 0.327-0.16 0.465-0.674 0.574-0.992-0.137 0.003-0.296 0.019-0.432-0.004-0.021-0.004-0.047-0.009-0.066-0.020-0.045-0.026-0.074-0.073-0.097-0.118-0.107-0.208-0.179-0.45-0.263-0.67l-0.52-1.367c-0.102-0.269-0.195-0.549-0.321-0.807-0.094-0.193-0.218-0.39-0.411-0.496-0.095-0.053-0.221-0.052-0.286-0.148-0.011-0.065 0-0.105 0.021-0.167 0.345-0.014 1.73-0.050 1.984 0.021 0.014 0.049 0.016 0.116-0.003 0.164-0.030 0.076-0.177 0.099-0.244 0.126-0.073 0.029-0.135 0.073-0.164 0.149-0.031 0.084 0.010 0.22 0.035 0.305 0.105 0.374 0.276 0.743 0.416 1.107 0.175 0.454 0.333 0.926 0.537 1.368z"></path>
<path d="M18.84 9.587c0.306-0.016 0.596 0.023 0.863 0.183 0.195 0.117 0.36 0.293 0.41 0.52 0.027 0.123 0.018 0.254-0.053 0.362-0.078 0.116-0.236 0.207-0.374 0.225-0.083 0.010-0.181-0.001-0.247-0.055-0.155-0.125-0.083-0.347-0.112-0.518-0.016-0.092-0.064-0.169-0.143-0.219-0.12-0.076-0.309-0.101-0.445-0.063-0.119 0.033-0.206 0.118-0.261 0.226-0.175 0.346-0.078 0.798 0.030 1.147 0.367 0.009 0.735 0.002 1.103 0.001 0.001 0.156-0.002 0.309-0.014 0.464-0.355-0-0.71-0.006-1.064 0.008-0.023 0.364-0.014 0.734-0.016 1.1-0.003 0.546-0.057 1.15 0.068 1.682 0.019 0.049 0.040 0.096 0.066 0.142 0.11 0.201 0.178 0.179 0.375 0.244 0.067 0.022 0.106 0.049 0.135 0.112-0.003 0.053-0.011 0.073-0.042 0.115-0.017 0.011-0.024 0.017-0.047 0.022-0.071 0.014-1.782 0.006-1.879-0.010-0.066-0.011-0.113-0.026-0.155-0.082 0.028-0.161 0.207-0.15 0.315-0.255 0.124-0.12 0.186-0.28 0.221-0.446 0.075-0.361 0.046-0.769 0.045-1.138l-0.007-1.491-0.7-0.003c-0.014-0.154-0.015-0.309-0.019-0.464l0.697-0c-0.034-0.104-0.068-0.213-0.083-0.321-0.044-0.322 0.030-0.649 0.228-0.91 0.263-0.347 0.686-0.524 1.108-0.578z"></path>
<path d="M15.945 9.588c0.282-0.024 0.553-0.003 0.806 0.135 0.202 0.111 0.375 0.293 0.437 0.519 0.038 0.14 0.043 0.317-0.037 0.445-0.056 0.090-0.15 0.143-0.253 0.162-0.094 0.018-0.218 0.017-0.296-0.045-0.148-0.119-0.049-0.347-0.082-0.505-0.020-0.095-0.096-0.175-0.179-0.221-0.131-0.072-0.319-0.080-0.46-0.038-0.117 0.035-0.206 0.112-0.26 0.222-0.156 0.319-0.038 0.807 0.069 1.124 0.351 0.021 0.711 0.005 1.063 0.006 0.009 0.157 0.001 0.311-0.009 0.468-0.358-0.001-0.716 0-1.073 0.004-0.016 0.447-0.023 0.895-0.020 1.343-0.001 0.461-0.047 0.979 0.088 1.424 0.149 0.326 0.457 0.381 0.53 0.555-0.011 0.032-0.007 0.037-0.038 0.056-0.113 0.067-1.826 0.054-1.979 0.018-0.006-0.021-0.014-0.045-0.014-0.066-0.005-0.136 0.21-0.193 0.292-0.274 0.115-0.113 0.171-0.323 0.198-0.479 0.060-0.351 0.041-0.737 0.040-1.092l-0.003-1.484-0.698-0.003c-0.011-0.155-0.010-0.309-0.010-0.464 0.223 0.002 0.445 0.002 0.668-0.001-0.034-0.113-0.071-0.227-0.088-0.345-0.048-0.319 0.022-0.635 0.217-0.895 0.262-0.349 0.671-0.511 1.091-0.569z"></path>
</symbol>
<symbol id="icon-Facebook" viewBox="0 0 32 32">
<path d="M29.333 16.405c0-7.409-5.969-13.415-13.333-13.415s-13.333 6.006-13.333 13.415c0 6.696 4.876 12.245 11.25 13.252v-9.374h-3.385v-3.878h3.385v-2.955c0-3.362 1.991-5.219 5.036-5.219 1.459 0 2.985 0.262 2.985 0.262v3.301h-1.681c-1.656 0-2.173 1.034-2.173 2.095v2.516h3.698l-0.591 3.878h-3.107v9.374c6.374-1.006 11.25-6.556 11.25-13.252z"></path>
</symbol>
<symbol id="icon-favicon" viewBox="0 0 32 32">
<path d="M27.942 14.832c-0.646-6.608-6.535-11.435-13.141-10.772-6.581 0.661-11.387 6.523-10.743 13.107s6.493 11.403 13.078 10.778c6.609-0.629 11.452-6.505 10.806-13.113zM18.997 6.831c0.146-0 0.256 0.029 0.392 0.066l0.029 0.008c0.053 0.267-0 0.392-0.14 0.619-0.245 0.398-0.517 0.78-0.79 1.162-0.481 0.674-0.962 1.347-1.292 2.114-0.715 1.664-0.548 3.604-0.38 5.565 0.147 1.716 0.296 3.448-0.144 5.023-0.529 1.895-1.857 3.135-3.52 4.059-0.092 0.015-0.194 0.008-0.292 0-0.021-0.002-0.041-0.003-0.061-0.005-0.013-0.001-0.025-0.002-0.037-0.002l-0.016-0.030c-0.095-0.18-0.101-0.191-0.032-0.396 0.089-0.266 0.266-0.538 0.433-0.795 0.064-0.098 0.126-0.194 0.181-0.286 0.578-0.963 1.145-2.003 1.322-3.127 0.222-1.403 0.104-2.848-0.014-4.292-0.15-1.832-0.299-3.666 0.245-5.415 0.668-2.149 2.232-3.27 4.114-4.271z"></path>
</symbol>
<symbol id="icon-Instagram" viewBox="0 0 32 32">
<path d="M15.998 6.161c3.206 0 3.585 0.014 4.846 0.071 1.172 0.052 1.804 0.248 2.226 0.412 0.558 0.216 0.961 0.478 1.378 0.895 0.422 0.422 0.679 0.82 0.9 1.378 0.164 0.422 0.361 1.059 0.412 2.226 0.056 1.266 0.071 1.645 0.071 4.847s-0.014 3.585-0.071 4.847c-0.052 1.172-0.248 1.804-0.412 2.227-0.216 0.558-0.478 0.961-0.895 1.377-0.422 0.422-0.82 0.679-1.378 0.9-0.422 0.164-1.060 0.361-2.226 0.412-1.266 0.056-1.645 0.071-4.847 0.071s-3.585-0.014-4.847-0.071c-1.172-0.052-1.804-0.248-2.226-0.412-0.558-0.216-0.961-0.478-1.378-0.895-0.422-0.422-0.679-0.82-0.9-1.378-0.164-0.422-0.361-1.060-0.412-2.226-0.056-1.266-0.071-1.645-0.071-4.847s0.014-3.585 0.071-4.847c0.052-1.172 0.248-1.804 0.412-2.226 0.216-0.558 0.478-0.961 0.895-1.378 0.422-0.422 0.82-0.679 1.378-0.9 0.422-0.164 1.059-0.361 2.226-0.412 1.261-0.056 1.641-0.071 4.847-0.071h0.001zM15.998 4.001c-3.258 0-3.665 0.014-4.945 0.071-1.275 0.056-2.151 0.262-2.91 0.558-0.792 0.309-1.462 0.717-2.127 1.387-0.67 0.666-1.078 1.336-1.387 2.123-0.295 0.764-0.502 1.636-0.558 2.91-0.056 1.285-0.071 1.692-0.071 4.949s0.014 3.665 0.071 4.945c0.056 1.275 0.262 2.151 0.558 2.91 0.31 0.792 0.717 1.462 1.387 2.127 0.665 0.665 1.336 1.078 2.123 1.383 0.764 0.295 1.636 0.502 2.91 0.558 1.279 0.056 1.687 0.071 4.945 0.071s3.666-0.014 4.945-0.071c1.275-0.056 2.151-0.262 2.91-0.558 0.787-0.305 1.458-0.717 2.123-1.383s1.078-1.336 1.383-2.123c0.295-0.764 0.502-1.635 0.558-2.91 0.056-1.279 0.071-1.687 0.071-4.945s-0.014-3.665-0.071-4.945c-0.056-1.275-0.262-2.151-0.558-2.91-0.295-0.797-0.703-1.467-1.373-2.133-0.665-0.665-1.336-1.078-2.123-1.383-0.764-0.295-1.635-0.502-2.91-0.558-1.284-0.061-1.692-0.075-4.949-0.075l-0.001 0.001z"></path>
<path d="M15.998 9.836c-3.402 0-6.163 2.76-6.163 6.163s2.76 6.163 6.163 6.163c3.403 0 6.163-2.76 6.163-6.163s-2.76-6.163-6.163-6.163zM15.998 19.997c-2.208 0-3.998-1.79-3.998-3.998s1.79-3.998 3.998-3.998c2.208 0 3.998 1.79 3.998 3.998s-1.79 3.998-3.998 3.998z"></path>
<path d="M23.843 9.592c0 0.795-0.644 1.439-1.439 1.439s-1.439-0.644-1.439-1.439 0.644-1.439 1.439-1.439c0.795 0 1.439 0.644 1.439 1.439z"></path>
</symbol>
<symbol id="icon-mail" viewBox="0 0 32 32">
<path d="M26.667 5.333h-21.333c-1.471 0-2.667 1.196-2.667 2.667v16c0 1.471 1.196 2.667 2.667 2.667h21.333c1.471 0 2.667-1.196 2.667-2.667v-16c0-1.471-1.196-2.667-2.667-2.667zM26.667 8v0.681l-10.667 8.297-10.667-8.296v-0.683h21.333zM5.333 24v-11.941l9.848 7.66c0.233 0.183 0.522 0.283 0.819 0.283s0.585-0.1 0.819-0.283l9.848-7.66 0.003 11.941h-21.336z"></path>
</symbol>
<symbol id="icon-map" viewBox="0 0 32 32">
<path d="M16 18.667c2.941 0 5.333-2.392 5.333-5.333s-2.392-5.333-5.333-5.333c-2.941 0-5.333 2.392-5.333 5.333s2.392 5.333 5.333 5.333zM16 10.667c1.471 0 2.667 1.196 2.667 2.667s-1.196 2.667-2.667 2.667c-1.471 0-2.667-1.196-2.667-2.667s1.196-2.667 2.667-2.667z"></path>
<path d="M15.227 29.085c0.226 0.161 0.496 0.248 0.773 0.248s0.548-0.087 0.773-0.248c0.405-0.287 9.932-7.165 9.893-15.752 0-5.881-4.785-10.667-10.667-10.667s-10.667 4.785-10.667 10.66c-0.039 8.593 9.488 15.472 9.893 15.759zM16 5.333c4.412 0 8 3.588 8 8.007 0.028 5.917-5.851 11.231-8 12.973-2.148-1.744-8.028-7.059-8-12.98 0-4.412 3.588-8 8-8z"></path>
</symbol>
<symbol id="icon-map-pin" viewBox="0 0 32 32">
<path d="M16 22.667l1.333-2.667v-6.856c2.295-0.596 4-2.667 4-5.144 0-2.941-2.392-5.333-5.333-5.333s-5.333 2.392-5.333 5.333c0 2.477 1.705 4.548 4 5.144v6.856l1.333 2.667zM13.333 8c0-1.471 1.196-2.667 2.667-2.667s2.667 1.196 2.667 2.667c0 1.471-1.196 2.667-2.667 2.667s-2.667-1.196-2.667-2.667z"></path>
<path d="M21.689 14.084l-0.711 2.571c3.455 0.955 5.688 2.791 5.688 4.679 0 2.523-4.38 5.333-10.667 5.333s-10.667-2.811-10.667-5.333c0-1.888 2.233-3.724 5.689-4.68l-0.711-2.571c-4.716 1.304-7.645 4.081-7.645 7.251 0 4.485 5.857 8 13.333 8s13.333-3.515 13.333-8c0-3.169-2.929-5.947-7.644-7.249z"></path>
</symbol>
<symbol id="icon-menu" viewBox="0 0 32 32">
<path d="M5.333 8h21.333v2.667h-21.333v-2.667zM5.333 14.667h21.333v2.667h-21.333v-2.667zM5.333 21.333h21.333v2.667h-21.333v-2.667z"></path>
</symbol>
<symbol id="icon-phone" viewBox="0 0 32 32">
<path d="M23.61 16.391c-0.124-0.124-0.271-0.222-0.432-0.289s-0.335-0.102-0.51-0.102c-0.175 0-0.348 0.035-0.51 0.102s-0.309 0.165-0.432 0.289l-2.125 2.125c-0.985-0.293-2.824-0.96-3.989-2.125s-1.832-3.004-2.125-3.989l2.125-2.125c0.124-0.124 0.222-0.271 0.289-0.432s0.102-0.335 0.102-0.51c0-0.175-0.035-0.348-0.102-0.51s-0.165-0.309-0.289-0.432l-5.333-5.333c-0.124-0.124-0.271-0.222-0.432-0.289s-0.335-0.102-0.51-0.102c-0.175 0-0.348 0.035-0.51 0.102s-0.309 0.165-0.432 0.289l-3.616 3.616c-0.507 0.507-0.792 1.203-0.781 1.913 0.031 1.899 0.533 8.493 5.731 13.691s11.792 5.699 13.692 5.731h0.037c0.704 0 1.369-0.277 1.873-0.781l3.616-3.616c0.124-0.124 0.222-0.271 0.289-0.432s0.102-0.335 0.102-0.51c0-0.175-0.035-0.349-0.102-0.51s-0.165-0.309-0.289-0.432l-5.333-5.335zM23.44 25.34c-1.664-0.028-7.357-0.475-11.831-4.949-4.488-4.488-4.923-10.201-4.949-11.832l2.673-2.673 3.448 3.448-1.724 1.724c-0.157 0.157-0.272 0.35-0.335 0.562s-0.073 0.437-0.027 0.654c0.032 0.153 0.815 3.789 3.028 6.003s5.849 2.996 6.003 3.028c0.217 0.047 0.442 0.038 0.654-0.025s0.406-0.179 0.562-0.336l1.725-1.724 3.448 3.448-2.675 2.673z"></path>
</symbol>
<symbol id="icon-star-filled" viewBox="0 0 32 32">
<path d="M14.761 4.816c0.458-1.089 2.019-1.089 2.478 0l2.705 6.425c0.193 0.459 0.63 0.772 1.132 0.812l7.021 0.556c1.19 0.094 1.672 1.561 0.766 2.328l-5.349 4.527c-0.382 0.323-0.549 0.831-0.432 1.314l1.634 6.769c0.277 1.147-0.986 2.053-2.004 1.439l-6.011-3.627c-0.429-0.259-0.969-0.259-1.399 0l-6.011 3.627c-1.018 0.615-2.281-0.292-2.004-1.439l1.634-6.769c0.117-0.483-0.050-0.991-0.432-1.314l-5.35-4.527c-0.906-0.767-0.424-2.234 0.766-2.328l7.021-0.556c0.502-0.040 0.938-0.353 1.132-0.812l2.705-6.425z"></path>
</symbol>
<symbol id="icon-star-outline" viewBox="0 0 32 32">
<path stroke-width="1.3333" stroke-miterlimit="4" stroke-linecap="butt" stroke-linejoin="miter" d="M15.375 5.076c0.229-0.545 1.021-0.545 1.25 0l2.704 6.424c0.291 0.691 0.947 1.16 1.694 1.219l7.021 0.556c0.61 0.048 0.828 0.78 0.388 1.154l-5.35 4.527c-0.573 0.485-0.826 1.25-0.65 1.98l1.635 6.768c0.133 0.549-0.482 1.031-1.013 0.711h-0.001l-6.009-3.626c-0.641-0.387-1.447-0.387-2.089 0l-6.010 3.626c-0.531 0.32-1.146-0.162-1.013-0.711l1.635-6.768c0.176-0.73-0.077-1.495-0.65-1.98l-5.35-4.527c-0.44-0.373-0.222-1.105 0.388-1.154l7.021-0.556c0.747-0.059 1.403-0.527 1.694-1.219l2.704-6.424z"></path>
</symbol>
<symbol id="icon-twiter" viewBox="0 0 32 32">
<path d="M22.901 5.657h3.68l-8.040 9.037 9.459 12.297h-7.406l-5.801-7.458-6.637 7.458h-3.682l8.6-9.666-9.074-11.668h7.594l5.243 6.817 6.064-6.817zM21.61 24.824h2.039l-13.163-17.115h-2.188l13.312 17.115z"></path>
</symbol>
</defs>
</svg>
